# xmcd
#
# Track frame offsets:
#	150
#	8900
#	30600
#	54415
#	79710
#	111115
#	138820
#	154285
#	171565
#	189790
#	210235
#
# Disc length: 2998 seconds
#
# Revision: 2
# Processed by: cddbd v1.5.1PL0 Copyright (c) Steve Scherf et al.
# Submitted via: EasyCDDAExtractor 8.0.2.1
#
DISCID=830bb40b
DTITLE=Ozzy Osbourne - Voorst National Brussels 30-01-83
DYEAR=1983
DGENRE=Hard Rock
TTITLE0=Intro
TTITLE1=I Don't Know
TTITLE2=Mr Crowley
TTITLE3=Crazy Train
TTITLE4=Suicide Solution
TTITLE5=Revelation (Mother Earth)
TTITLE6=Steal Away (The Night)
TTITLE7=Drum Solo
TTITLE8=Iron Man
TTITLE9=Children Of The Grave
TTITLE10=Paranoid
EXTD=
EXTT0=
EXTT1=
EXTT2=
EXTT3=
EXTT4=
EXTT5=
EXTT6=
EXTT7=
EXTT8=
EXTT9=
EXTT10=
PLAYORDER=
